<svg width="159" height="28" viewBox="0 0 159 28" fill="none" xmlns="http://www.w3.org/2000/svg">
<mask id="mask0_1634_1270" style="mask-type:alpha" maskUnits="userSpaceOnUse" x="0" y="0" width="159" height="28">
<rect width="159" height="28" rx="4" fill="#C4C4C4"/>
</mask>
<g mask="url(#mask0_1634_1270)">
<path fill-rule="evenodd" clip-rule="evenodd" d="M159 0V28H0V0H159ZM27.9026 6.24223H24.2618C23.665 6.24223 23.1875 6.75241 23.1875 7.32262V20.8274C23.1875 21.5477 23.7247 21.9078 24.2618 21.9078C24.799 21.9078 25.3362 21.5477 25.3362 20.8274V14.9753H27.8727C30.29 14.9753 32.0805 13.0247 32.0805 10.5938C32.0805 8.16292 30.3198 6.24223 27.9026 6.24223ZM97.2264 20.4973L92.9887 6.93248C92.8097 6.36227 92.3024 6.09218 91.7652 6.09218C91.2579 6.09218 90.7207 6.36227 90.5417 6.93248L86.3041 20.4973C86.3041 20.6174 86.2742 20.7374 86.2742 20.8574C86.2742 21.4277 86.7218 21.8778 87.3784 21.8778C87.7962 21.8778 88.2737 21.6377 88.4229 21.0975L89.3181 18.1265H94.272L95.1971 21.0975C95.3761 21.6377 95.7939 21.8778 96.2117 21.8778C96.8682 21.8778 97.3159 21.4277 97.3159 20.8574C97.3159 20.7674 97.286 20.6174 97.2264 20.4973ZM152.435 20.4973L148.197 6.93248C148.018 6.36227 147.511 6.09218 146.974 6.09218C146.466 6.09218 145.929 6.36227 145.75 6.93248L141.512 20.4973C141.512 20.6174 141.483 20.7374 141.483 20.8574C141.483 21.4277 141.93 21.8778 142.587 21.8778C143.005 21.8778 143.482 21.6377 143.631 21.0975L144.526 18.1265H149.48L150.405 21.0975C150.584 21.6377 151.002 21.8778 151.42 21.8778C152.077 21.8778 152.524 21.4277 152.524 20.8574C152.524 20.7674 152.494 20.6174 152.435 20.4973ZM146.974 10.0536L148.794 15.9957H145.183L146.974 10.0536ZM134.768 7.17256C134.768 6.60236 134.261 6.09218 133.694 6.09218H133.425C132.828 6.09218 132.53 6.24223 132.321 6.7224L129.068 14.135L125.756 6.7224C125.577 6.30225 125.159 6.09218 124.651 6.09218H124.383C123.816 6.09218 123.309 6.60236 123.309 7.17256V20.7974C123.309 21.5177 123.846 21.8778 124.383 21.8778C124.92 21.8778 125.457 21.5177 125.457 20.7974V11.284L127.964 16.896C128.173 17.3462 128.62 17.5563 129.068 17.5563C129.546 17.5563 129.993 17.3462 130.202 16.896L132.619 11.284V20.7974C132.619 21.5177 133.157 21.8778 133.694 21.8778C134.231 21.8778 134.768 21.5177 134.768 20.7974V7.17256ZM115.49 20.7974V7.17256C115.49 6.60236 114.983 6.09218 114.416 6.09218H114.147C113.55 6.09218 113.252 6.24223 113.043 6.7224L109.79 14.135L106.477 6.7224C106.298 6.30225 105.881 6.09218 105.373 6.09218H105.105C104.538 6.09218 104.03 6.60236 104.03 7.17256V20.7974C104.03 21.5177 104.568 21.8778 105.105 21.8778C105.642 21.8778 106.179 21.5177 106.179 20.7974V11.284L108.686 16.896C108.895 17.3462 109.342 17.5563 109.79 17.5563C110.267 17.5563 110.715 17.3462 110.924 16.896L113.341 11.284V20.7974C113.341 21.5177 113.878 21.8778 114.416 21.8778C114.953 21.8778 115.49 21.5177 115.49 20.7974ZM91.7652 10.0536L93.5856 15.9957H89.9747L91.7652 10.0536ZM79.8283 17.4962V14.135C79.8283 13.5348 79.2911 13.0547 78.7241 13.0547H75.8592C75.143 13.0547 74.7849 13.5648 74.7849 14.105C74.7849 14.6452 75.143 15.1854 75.8592 15.1854H77.6796V17.4962C77.6796 18.7267 76.665 19.7471 75.4713 19.7471H75.2624C74.0687 19.7471 73.0541 18.7867 73.0541 17.5563V10.3837C73.0541 9.15327 74.0687 8.22294 75.2624 8.22294H75.4713C76.5755 8.22294 77.5901 8.76313 77.7095 9.78349C77.799 10.4437 78.2765 10.7438 78.7539 10.7438C79.2911 10.7438 79.7984 10.3837 79.7984 9.72347V9.60343C79.5895 7.65273 77.799 6.09218 75.4713 6.09218H75.2624C72.875 6.09218 70.9054 7.95284 70.9054 10.3837V17.5563C70.9054 19.9871 72.8452 21.8778 75.2624 21.8778H75.4713C77.8885 21.8778 79.8283 19.9271 79.8283 17.4962ZM63.3255 20.7974V7.14255C63.3255 6.42229 62.7584 6.06217 62.2213 6.06217C61.6841 6.06217 61.1768 6.42229 61.1768 7.14255V16.5359L56.9093 6.87245C56.5811 6.09218 56.0439 6.09218 55.7753 6.09218H55.5366C54.8204 6.09218 54.4026 6.63237 54.4026 7.20257V20.7974C54.4026 21.5177 54.9696 21.8778 55.5068 21.8778C56.0439 21.8778 56.5512 21.5177 56.5512 20.7974V11.284L60.8187 20.9475C61.1768 21.7878 61.714 21.8778 62.0124 21.8778H62.2511C62.848 21.8778 63.3255 21.3676 63.3255 20.7974ZM40.8542 14.7953H44.7337C45.4499 14.7953 45.808 14.2551 45.808 13.7149C45.808 13.1747 45.4499 12.6645 44.7337 12.6645H40.8542V8.34298H46.5839C47.3001 8.34298 47.6582 7.80279 47.6582 7.2926C47.6582 6.75241 47.3001 6.21222 46.5839 6.21222H39.8097C39.2427 6.21222 38.7354 6.7224 38.7354 7.2926V20.6474C38.7354 21.2176 39.2427 21.7278 39.8097 21.7278H46.5839C47.3001 21.7278 47.6582 21.1876 47.6582 20.6774C47.6582 20.1372 47.3001 19.597 46.5839 19.597H40.8542V14.7953ZM27.9026 12.8446H25.366V8.37299H27.9026C29.1261 8.37299 29.9617 9.39335 29.9617 10.5938C29.9617 11.8242 29.1261 12.8446 27.9026 12.8446ZM15.6374 17.5863V10.4137C15.6374 7.98285 13.6976 6.12219 11.2804 6.12219H11.0715C8.65428 6.12219 6.68468 7.98285 6.68468 10.4137V17.5863C6.68468 20.0171 8.65428 21.9078 11.0417 21.9078H11.2506C13.6678 21.9078 15.6075 20.0171 15.6075 17.5863H15.6374ZM11.2804 19.7771H11.0715C9.87782 19.7771 8.86318 18.8167 8.86318 17.5863V10.4137C8.86318 9.18328 9.87782 8.25295 11.0715 8.25295H11.2804C12.4741 8.25295 13.4887 9.18328 13.4887 10.4137V17.5863C13.4887 18.8167 12.4741 19.7471 11.2804 19.7771Z" fill="white"/>
</g>
</svg>
