<svg width="64" height="64" viewBox="0 0 35 40" fill="none" xmlns="http://www.w3.org/2000/svg">
    <path d="M26.5884 26.3732C25.7468 27.214 24.7452 27.8805 23.6418 28.334C22.5383 28.7875 21.3549 29.0189 20.1604 29.0148C17.7517 29.0119 15.4424 28.0616 13.7392 26.3722C12.0359 24.6827 11.0777 22.3919 11.0748 20.0027C11.0763 17.6124 12.0338 15.3206 13.7372 13.63C15.4406 11.9393 17.7507 10.9881 20.1604 10.9852C21.355 10.9805 22.5385 11.2116 23.6421 11.6652C24.7457 12.1187 25.7472 12.7855 26.5884 13.6268L26.8788 13.915L35 5.85939H26.0678L20.1604 0L14.2587 5.85939H5.90733V14.1433L0 20.0027L5.90733 25.8567V34.1406H14.2587L20.1604 40L26.0678 34.1406H35L26.8788 26.085L26.5884 26.3732ZM12.8887 26.645L6.73473 32.7491V20.4103H10.2803C10.3691 22.7261 11.2837 24.9356 12.8613 26.645H12.8887ZM10.2803 19.5788H6.73473V7.25092L12.8887 13.355C11.2979 15.0611 10.3713 17.2731 10.2748 19.595L10.2803 19.5788ZM5.89636 19.5788H1.56175L5.89636 15.2792V19.5788ZM33.0053 6.65853L26.8624 12.7517C25.138 11.1754 22.9038 10.2601 20.5605 10.1699V6.65853H33.0053ZM19.7385 5.8432H15.4094L19.7385 1.54361V5.8432ZM20.5605 1.54361L24.8951 5.8432H20.5605V1.54361ZM14.4175 6.65853H19.7385V10.1752C17.4003 10.2707 15.1724 11.1879 13.4531 12.7626L7.29917 6.65853H14.4175ZM1.56175 20.3941H5.89636V24.6881L1.56175 20.3941ZM7.29917 33.3088L13.4531 27.2047C15.1724 28.7794 17.4003 29.6966 19.7385 29.7922V33.3088H7.29917ZM20.5605 34.1242H24.8951L20.5605 38.4237V34.1242ZM19.7385 38.4237L15.4094 34.1242H19.7385V38.4237ZM25.887 33.3088H20.5605V29.7975C22.9031 29.7088 25.1372 28.7955 26.8624 27.2212L33.0053 33.3088H25.887Z" fill="CurrentColor"></path>
</svg>